<svg width="30" height="30" viewBox="0 0 30 30" fill="none" xmlns="http://www.w3.org/2000/svg">
<path fill-rule="evenodd" clip-rule="evenodd" d="M15 0C6.71496 0 0 6.88493 0 15.3797C0 22.1736 4.29667 27.9391 10.2582 29.9745C11.0086 30.1133 11.2793 29.6399 11.2793 29.2328C11.2793 28.8674 11.2673 27.899 11.2628 26.6176C7.08943 27.5459 6.20814 24.5545 6.20814 24.5545C5.52837 22.7781 4.54331 22.3047 4.54331 22.3047C3.18227 21.3502 4.64708 21.3718 4.64708 21.3718C6.154 21.4798 6.94355 22.957 6.94355 22.957C8.28203 25.3069 10.4567 24.6285 11.3079 24.2353C11.4448 23.2407 11.8358 22.5622 12.2629 22.1783C8.93323 21.7912 5.43212 20.4713 5.43212 14.5763C5.43212 12.9002 6.01714 11.5247 6.97213 10.4515C6.82023 10.0614 6.30138 8.4963 7.12102 6.38071C7.12102 6.38071 8.37979 5.96591 11.2447 7.95507C12.4683 7.61378 13.7305 7.43958 14.9985 7.43696C16.2666 7.43907 17.5288 7.61329 18.7523 7.95507C21.6187 5.96437 22.876 6.38071 22.876 6.38071C23.6956 8.4963 23.1813 10.0614 23.0249 10.4515C23.9874 11.5247 24.5649 12.8986 24.5649 14.5763C24.5649 20.4867 21.0608 21.7851 17.7191 22.1659C18.253 22.6409 18.7342 23.5784 18.7342 25.0124C18.7342 27.0694 18.7162 28.7286 18.7162 29.2328C18.7162 29.6445 18.9839 30.1225 19.7493 29.9714C25.7078 27.9329 30 22.1721 30 15.3797C30 6.88493 23.285 0 15 0Z" fill="#19316F"/>
</svg>
