<svg width="30" height="30" viewBox="0 0 30 30" fill="none" xmlns="http://www.w3.org/2000/svg">
<path d="M15 0C6.71563 0 0 6.71563 0 15C0 23.2844 6.71563 30 15 30C23.2844 30 30 23.2844 30 15C30 6.71563 23.2844 0 15 0ZM14.1359 21.4391C13.1937 21.8969 12.1797 21.9453 11.7875 21.9453H11.6703H11.5859C10.9734 21.9453 7.925 21.8047 7.925 19.0281C7.925 16.3 11.2453 16.0859 12.2625 16.0859H12.2891C11.7016 15.3016 11.8234 14.5109 11.8234 14.5109C11.7506 14.5152 11.6776 14.5173 11.6047 14.5172C11.2219 14.5172 10.4828 14.4563 9.84844 14.0469C9.07031 13.5469 8.67656 12.6953 8.67656 11.5172C8.67656 8.1875 12.3125 8.05312 12.3484 8.05H15.9797V8.12969C15.9797 8.53594 15.25 8.61562 14.7531 8.68281C14.5844 8.70781 14.2453 8.74062 14.15 8.78906C15.0703 9.28125 15.2187 10.0531 15.2187 11.2031C15.2187 12.5125 14.7062 13.2047 14.1625 13.6906C13.825 13.9922 13.5609 14.2281 13.5609 14.5453C13.5609 14.8562 13.9234 15.1734 14.3453 15.5437C15.0344 16.1516 15.9797 16.9781 15.9797 18.3734C15.9797 19.8156 15.3594 20.8469 14.1359 21.4391V21.4391ZM22.0312 15H19.6875V17.3437H18.125V15H15.7812V13.4375H18.125V11.0937H19.6875V13.4375H22.0312V15ZM12.2234 16.7969C12.1416 16.7969 12.0597 16.8 11.9781 16.8062C11.3145 16.8445 10.6824 17.1023 10.1812 17.5391C9.72187 17.9547 9.4875 18.4797 9.52031 19.0094C9.59062 20.1203 10.7828 20.7703 12.2312 20.6672C13.6562 20.5641 14.6063 19.7422 14.5375 18.6312C14.4719 17.5875 13.5641 16.7969 12.2234 16.7969V16.7969ZM13.5891 10.7578C13.2109 9.42969 12.6016 9.03594 11.6547 9.03594C11.5522 9.03669 11.4503 9.05087 11.3516 9.07812C10.9406 9.19531 10.6141 9.5375 10.4328 10.0469C10.2469 10.5625 10.2359 11.1 10.3953 11.7125C10.6844 12.8078 11.4625 13.6016 12.2469 13.6016C12.3494 13.6026 12.4516 13.5883 12.55 13.5594C13.4078 13.3187 13.9453 12.0094 13.5891 10.7578V10.7578Z" fill="#FF0000"/>
</svg>
