<svg width="32" height="32" viewBox="0 0 32 32" fill="none" xmlns="http://www.w3.org/2000/svg">
<path d="M31 16V3.5C31 2.83696 30.7366 2.20107 30.2678 1.73223C29.7989 1.26339 29.163 1 28.5 1H3.5C2.83696 1 2.20107 1.26339 1.73223 1.73223C1.26339 2.20107 1 2.83696 1 3.5V28.5C1 29.163 1.26339 29.7989 1.73223 30.2678C2.20107 30.7366 2.83696 31 3.5 31H16" stroke="#A7A7A7" stroke-width="2" stroke-linecap="round" stroke-linejoin="round"/>
<path d="M22.6667 27.6665C25.4282 27.6665 27.6667 25.4279 27.6667 22.6665C27.6667 19.9051 25.4282 17.6665 22.6667 17.6665C19.9053 17.6665 17.6667 19.9051 17.6667 22.6665C17.6667 25.4279 19.9053 27.6665 22.6667 27.6665Z" stroke="#A7A7A7" stroke-width="2"/>
<path d="M26.8333 26L30.9999 29.3333" stroke="#A7A7A7" stroke-width="2" stroke-linecap="round" stroke-linejoin="round"/>
<path d="M7.66675 9.3335H24.3334" stroke="#A7A7A7" stroke-width="2" stroke-linecap="round" stroke-linejoin="round"/>
<path d="M7.66675 16H14.3334" stroke="#A7A7A7" stroke-width="2" stroke-linecap="round" stroke-linejoin="round"/>
</svg>
