<svg width="80" height="80" viewBox="0 0 80 80" fill="none" xmlns="http://www.w3.org/2000/svg">
<path fill-rule="evenodd" clip-rule="evenodd" d="M39.9997 79.1667C61.6308 79.1667 79.1663 61.6312 79.1663 40C79.1663 18.3689 61.6308 0.833374 39.9997 0.833374C18.3685 0.833374 0.833008 18.3689 0.833008 40C0.833008 61.6312 18.3685 79.1667 39.9997 79.1667ZM28.333 46.6667C28.333 46.6667 32.5655 46.0809 32.4997 40.8334C32.4338 35.5867 32.4997 31.6667 32.4997 31.6667C32.4997 31.6667 32.438 30 33.7497 30C33.7497 30 35.0488 29.8676 35.0488 31.6667C35.0488 33.4658 35.0488 50.0272 35.0488 50.0272C35.0488 50.0272 34.5419 54.1626 39.9997 54.1626C45.4574 54.1626 45.0189 50.0272 45.0189 50.0272V37.5C45.0189 37.5 44.9321 35.8334 46.2497 35.8334C47.5673 35.8334 47.4997 37.5 47.4997 37.5V42.7129C47.4997 42.7129 46.9913 46.6667 52.9163 46.6667H60.833V43.3334H52.9163C52.9163 43.3334 50.8375 42.9167 50.8375 40.8334V36.6667C50.8375 36.6667 50.8323 32.5117 46.2497 32.5117C41.6671 32.5117 41.6671 36.6667 41.6671 36.6667V49.1667C41.6671 49.1667 41.6501 50.8334 39.9997 50.8334C38.3493 50.8334 38.3493 49.1667 38.3493 49.1667V31.6667C38.3493 31.6667 38.4883 26.6627 33.7497 26.6627C29.0111 26.6627 29.1663 31.6667 29.1663 31.6667V40.4167C29.1663 40.4167 29.1663 43.3334 27.083 43.3334H19.1663V46.6667H28.333Z" fill="#FF0B45"/>
</svg>
