<svg width="64" height="26" viewBox="0 0 64 26" fill="none" xmlns="http://www.w3.org/2000/svg">
<path d="M15.95 17.6C15.6333 17.8667 15.125 18.1333 14.425 18.4C13.7417 18.6667 12.9833 18.875 12.15 19.025C11.3333 19.1917 10.55 19.275 9.8 19.275C9.5 19.275 9.06667 19.2333 8.5 19.15C7.95 19.0667 7.33333 18.925 6.65 18.725C5.96667 18.5083 5.275 18.2083 4.575 17.825C3.875 17.425 3.225 16.9167 2.625 16.3C2.04167 15.6667 1.56667 14.9 1.2 14C0.85 13.1 0.675 12.0333 0.675 10.8C0.675 9.95 0.783333 9.05833 1 8.125C1.23333 7.175 1.59167 6.25 2.075 5.35C2.575 4.43333 3.20833 3.61667 3.975 2.9C4.75833 2.16667 5.7 1.58333 6.8 1.15C7.9 0.716666 9.18333 0.508333 10.65 0.524999C11.6833 0.541666 12.7667 0.683332 13.9 0.949998C15.0333 1.21667 16.0583 1.64167 16.975 2.225L15.375 5.525C14.725 5.09167 13.9583 4.75833 13.075 4.525C12.1917 4.275 11.3667 4.15833 10.6 4.175C9.4 4.19167 8.4 4.41667 7.6 4.85C6.81667 5.26667 6.19167 5.80833 5.725 6.475C5.275 7.14167 4.95 7.85 4.75 8.6C4.56667 9.33333 4.475 10.025 4.475 10.675C4.475 11.5583 4.63333 12.3 4.95 12.9C5.26667 13.4833 5.675 13.9667 6.175 14.35C6.69167 14.7167 7.225 15 7.775 15.2C8.325 15.3833 8.84167 15.5083 9.325 15.575C9.825 15.6417 10.2083 15.675 10.475 15.675C10.875 15.6917 11.25 15.675 11.6 15.625C11.95 15.5583 12.2583 15.4583 12.525 15.325L12.8 12.925H9.625L10.05 9.45H16.925L15.95 17.6ZM23.2115 17.025H25.3615L27.2615 3.475H23.3365L23.0615 5.35H21.0865L21.6365 1.5H35.4615L34.9115 5.35H32.9365L33.2115 3.475H29.3365L27.4365 17.025H29.2615L28.9865 19H22.9365L23.2115 17.025ZM35.0377 17.025H36.9377L37.6877 11.6H36.0377L36.3127 9.625H39.7877L39.7627 9.85C39.7294 10.25 39.7044 10.6167 39.6877 10.95C39.6877 11.2667 39.671 11.625 39.6377 12.025C39.8877 11.6083 40.1877 11.2417 40.5377 10.925C40.9044 10.5917 41.271 10.3167 41.6377 10.1C42.0044 9.86667 42.3544 9.69167 42.6877 9.575C43.0377 9.45833 43.3377 9.4 43.5877 9.4L43.1627 11.45C42.6627 11.45 42.1877 11.525 41.7377 11.675C41.3044 11.825 40.921 12.0333 40.5877 12.3C40.2544 12.5667 39.9794 12.8833 39.7627 13.25C39.5627 13.6167 39.4294 14.0167 39.3627 14.45L39.0127 17.025H40.5877L40.3127 19H34.7627L35.0377 17.025ZM44.2906 17.025H46.0406L46.7906 11.6H45.0406L45.3156 9.625H49.1406L48.1156 17.025H49.8406L49.5656 19H44.0156L44.2906 17.025ZM47.3656 6C47.4156 5.61667 47.5906 5.3 47.8906 5.05C48.1906 4.8 48.5073 4.675 48.8406 4.675C49.1573 4.675 49.4323 4.8 49.6656 5.05C49.899 5.3 49.9906 5.61667 49.9406 6C49.874 6.38333 49.6906 6.7 49.3906 6.95C49.0906 7.18333 48.7823 7.3 48.4656 7.3C48.1323 7.3 47.849 7.18333 47.6156 6.95C47.3823 6.7 47.299 6.38333 47.3656 6ZM50.6404 23.275H52.3154L53.9654 11.6H52.0654L52.3904 9.625H55.9654C55.9154 10.0083 55.8904 10.4 55.8904 10.8C55.9071 10.75 56.0154 10.65 56.2154 10.5C56.4154 10.3333 56.6654 10.175 56.9654 10.025C57.2821 9.85833 57.6321 9.71667 58.0154 9.6C58.4154 9.46667 58.8321 9.4 59.2654 9.4C59.9654 9.4 60.5988 9.53333 61.1654 9.8C61.7488 10.05 62.2321 10.4 62.6154 10.85C63.0154 11.3 63.2988 11.825 63.4654 12.425C63.6488 13.0083 63.6988 13.6333 63.6154 14.3C63.5154 14.9667 63.2904 15.6 62.9404 16.2C62.6071 16.8 62.1821 17.325 61.6654 17.775C61.1488 18.225 60.5654 18.5833 59.9154 18.85C59.2654 19.1 58.5904 19.225 57.8904 19.225C57.4238 19.225 57.0071 19.175 56.6404 19.075C56.2904 18.975 55.9904 18.8583 55.7404 18.725C55.4904 18.5917 55.2904 18.4667 55.1404 18.35C55.0071 18.2167 54.9238 18.1167 54.8904 18.05C54.9238 18.1333 54.9488 18.2167 54.9654 18.3C54.9988 18.3667 55.0321 18.4417 55.0654 18.525L54.3904 23.275H56.1904L55.9404 25.25H50.4154L50.6404 23.275ZM61.5154 14.3C61.6321 13.4667 61.4571 12.7833 60.9904 12.25C60.5238 11.7 59.8571 11.425 58.9904 11.425C58.5571 11.425 58.1488 11.5 57.7654 11.65C57.3988 11.7833 57.0654 11.9833 56.7654 12.25C56.4654 12.5 56.2154 12.8 56.0154 13.15C55.8321 13.5 55.7154 13.8833 55.6654 14.3C55.5988 14.7 55.6071 15.0833 55.6904 15.45C55.7904 15.8 55.9488 16.1083 56.1654 16.375C56.3988 16.625 56.6821 16.825 57.0154 16.975C57.3488 17.125 57.7321 17.2 58.1654 17.2C58.5988 17.2 58.9988 17.125 59.3654 16.975C59.7488 16.825 60.0904 16.625 60.3904 16.375C60.6904 16.1083 60.9321 15.8 61.1154 15.45C61.3154 15.0833 61.4488 14.7 61.5154 14.3Z" fill="white"/>
</svg>
