<svg width="15" height="66" viewBox="0 0 15 66" fill="none" xmlns="http://www.w3.org/2000/svg">
<path d="M14.2441 54.75C11.715 60 7.5 66 7.5 66C7.5 66 3.28497 60 0.755948 54.75C-1.77307 49.5 2.44196 45 7.5 45C12.558 45 16.7731 49.5 14.2441 54.75Z" fill="#FF0B45"/>
<path d="M7.49996 54.75C9.36227 54.75 10.872 53.4069 10.872 51.75C10.872 50.0931 9.36227 48.75 7.49996 48.75C5.63764 48.75 4.12793 50.0931 4.12793 51.75C4.12793 53.4069 5.63764 54.75 7.49996 54.75Z" fill="white"/>
<circle cx="7.5" cy="7.5" r="7.5" fill="#C4C4C4"/>
<circle cx="7.5" cy="7.5" r="2.5" fill="black"/>
<line x1="7.5" y1="15" x2="7.5" y2="45" stroke="black"/>
</svg>
